<?xml version="1.0" encoding="UTF-8" standalone="no"?>
<!-- Created with Inkscape (http://www.inkscape.org/) -->

<svg
   width="20"
   height="20"
   viewBox="0 0 5.2916667 5.2916668"
   version="1.1"
   id="svg5"
   xml:space="preserve"
   inkscape:version="1.2.2 (732a01da63, 2022-12-09)"
   sodipodi:docname="broom_dark.svg"
   inkscape:export-filename="broom_dark.png"
   inkscape:export-xdpi="124.8"
   inkscape:export-ydpi="124.8"
   xmlns:inkscape="http://www.inkscape.org/namespaces/inkscape"
   xmlns:sodipodi="http://sodipodi.sourceforge.net/DTD/sodipodi-0.dtd"
   xmlns="http://www.w3.org/2000/svg"
   xmlns:svg="http://www.w3.org/2000/svg"><sodipodi:namedview
     id="namedview7"
     pagecolor="#ffffff"
     bordercolor="#000000"
     borderopacity="0.25"
     inkscape:showpageshadow="2"
     inkscape:pageopacity="0.0"
     inkscape:pagecheckerboard="0"
     inkscape:deskcolor="#d1d1d1"
     inkscape:document-units="mm"
     showgrid="false"
     inkscape:zoom="28.56431"
     inkscape:cx="0.92773115"
     inkscape:cy="13.898463"
     inkscape:window-width="2560"
     inkscape:window-height="1369"
     inkscape:window-x="1912"
     inkscape:window-y="-7"
     inkscape:window-maximized="1"
     inkscape:current-layer="layer1" /><defs
     id="defs2" /><g
     inkscape:label="Ebene 1"
     inkscape:groupmode="layer"
     id="layer1"
     transform="translate(-31.089077,-40.108944)"><path
       style="fill:#eeeeee;stroke-width:0.00840789;fill-opacity:1"
       d="m 33.055225,45.254489 c -0.02677,-0.0034 -0.05095,-0.0085 -0.05375,-0.0113 -0.0028,-0.0028 0.0089,-0.03071 0.02597,-0.06203 0.07041,-0.129181 0.136977,-0.282401 0.216191,-0.497651 0.04545,-0.123515 0.04972,-0.15956 0.0095,-0.0806 -0.07184,0.141181 -0.196355,0.342798 -0.320828,0.519482 -0.07416,0.10527 -0.06015,0.101669 -0.203578,0.05233 -0.147673,-0.05081 -0.337666,-0.154592 -0.45078,-0.246248 l -0.03555,-0.02881 0.07339,-0.05506 c 0.04037,-0.03028 0.111225,-0.08749 0.157468,-0.127119 0.08961,-0.07681 0.325893,-0.312772 0.319543,-0.319122 -0.0021,-0.0021 -0.01084,0.0015 -0.01944,0.0079 -0.0086,0.0064 -0.06363,0.04773 -0.122274,0.09179 -0.11951,0.08979 -0.278184,0.192783 -0.414594,0.269111 l -0.09114,0.051 -0.04483,-0.04877 c -0.04705,-0.05118 -0.09028,-0.110044 -0.08462,-0.115204 0.0018,-0.0017 0.02793,-0.01534 0.05798,-0.03037 0.151207,-0.07561 0.462822,-0.283069 0.579392,-0.385727 0.03803,-0.03349 0.01198,-0.02629 -0.05884,0.01627 -0.151391,0.09097 -0.426953,0.219024 -0.598948,0.27832 l -0.05738,0.01978 -0.02008,-0.02323 c -0.03417,-0.03952 -0.09092,-0.141189 -0.08289,-0.148515 0.0042,-0.0038 0.03591,-0.0136 0.07059,-0.02182 0.07784,-0.01844 0.247882,-0.07619 0.348928,-0.118493 0.254846,-0.106703 0.524999,-0.281015 0.699094,-0.451082 l 0.06009,-0.0587 0.196349,0.100859 c 0.107991,0.05547 0.29472,0.151226 0.414953,0.212785 0.120233,0.06156 0.241308,0.124 0.269054,0.138759 l 0.05045,0.02683 -0.0019,0.112444 c -0.0049,0.295429 -0.06976,0.578688 -0.171608,0.750128 -0.03929,0.06614 -0.116529,0.150229 -0.122628,0.133507 -0.0022,-0.0059 0.0038,-0.04942 0.0132,-0.09669 0.0364,-0.182807 0.05598,-0.338695 0.06709,-0.534265 0.0032,-0.05698 0.0035,-0.107412 6.26e-4,-0.112076 -0.0029,-0.0047 -0.01166,0.02682 -0.01951,0.06996 -0.01439,0.07911 -0.0694,0.308413 -0.09318,0.388365 -0.04937,0.166031 -0.09716,0.319707 -0.100442,0.322987 -0.0053,0.0053 -0.14699,0.02216 -0.151156,0.01792 -0.0019,-0.0019 0.0077,-0.04693 0.02132,-0.100111 0.02485,-0.09736 0.04775,-0.211387 0.06585,-0.327908 0.0054,-0.03468 0.01178,-0.07346 0.01419,-0.08618 0.0091,-0.04781 -0.01033,-0.02056 -0.02999,0.04208 -0.03268,0.104079 -0.08205,0.23283 -0.137019,0.357294 l -0.05106,0.115609 -0.07231,-0.0011 c -0.03977,-6.26e-4 -0.09421,-0.0039 -0.120977,-0.0073 z m 0.817994,-1.198825 c -0.04855,-0.02558 -0.237734,-0.122449 -0.420395,-0.215268 -0.387396,-0.196852 -0.386764,-0.196496 -0.386764,-0.217869 0,-0.01765 0.03361,-0.0759 0.06136,-0.106347 0.02473,-0.02714 0.04905,-0.0237 0.126523,0.01788 0.06909,0.03708 0.194211,0.101625 0.564625,0.291256 0.110984,0.05682 0.208411,0.108992 0.216504,0.115943 0.01972,0.01694 0.01843,0.03955 -0.0052,0.09017 -0.02112,0.04536 -0.04255,0.07135 -0.05851,0.07097 -0.0055,-1.27e-4 -0.04964,-0.02116 -0.09819,-0.04674 z m -0.06726,-0.353712 c -0.46889,-0.241371 -0.525495,-0.271404 -0.525495,-0.278815 0,-0.0129 0.0729,-0.08935 0.117711,-0.123443 0.08867,-0.06747 0.206953,-0.09884 0.306506,-0.08129 0.159432,0.02811 0.285682,0.140475 0.331558,0.295096 0.02496,0.08411 0.01413,0.295248 -0.01511,0.294671 -0.0051,-9.5e-5 -0.101877,-0.0479 -0.215174,-0.106221 z m 0.138666,-0.49063 c -0.01888,-0.02085 -0.130988,-0.0756 -0.154825,-0.0756 -0.0096,0 -0.01748,-0.0032 -0.01748,-0.0071 0,-0.0039 0.02029,-0.04082 0.0451,-0.08198 0.128334,-0.212959 0.242436,-0.44569 0.375871,-0.766658 0.04175,-0.100428 0.08777,-0.210973 0.102258,-0.245656 0.0594,-0.142161 0.19419,-0.442982 0.234363,-0.523037 0.164271,-0.327349 0.359979,-0.619321 0.599007,-0.893644 0.119259,-0.136869 0.34256,-0.356334 0.372675,-0.366273 0.05505,-0.01817 0.110404,0.01733 0.128345,0.08231 0.01583,0.05734 0.0065,0.07181 -0.15004,0.233179 -0.206729,0.213075 -0.366964,0.40619 -0.488584,0.588841 -0.182501,0.274084 -0.291169,0.483741 -0.470656,0.908054 -0.194267,0.459258 -0.202493,0.478196 -0.29179,0.67176 -0.07208,0.156242 -0.252302,0.492645 -0.263962,0.492708 -0.0027,1.7e-5 -0.01188,-0.0076 -0.02029,-0.01686 z"
       id="path248" /></g></svg>
