<?xml version="1.0" encoding="UTF-8" standalone="no"?>
<svg
   height="24px"
   viewBox="0 -960 960 960"
   width="24px"
   fill="#333333"
   version="1.1"
   id="svg8830"
   sodipodi:docname="copy_dark.svg"
   inkscape:version="1.2.2 (732a01da63, 2022-12-09)"
   inkscape:export-filename="copy_dark.png"
   inkscape:export-xdpi="96"
   inkscape:export-ydpi="96"
   xmlns:inkscape="http://www.inkscape.org/namespaces/inkscape"
   xmlns:sodipodi="http://sodipodi.sourceforge.net/DTD/sodipodi-0.dtd"
   xmlns="http://www.w3.org/2000/svg"
   xmlns:svg="http://www.w3.org/2000/svg">
  <defs
     id="defs8834" />
  <sodipodi:namedview
     id="namedview8832"
     pagecolor="#ffffff"
     bordercolor="#000000"
     borderopacity="0.25"
     inkscape:showpageshadow="2"
     inkscape:pageopacity="0.0"
     inkscape:pagecheckerboard="0"
     inkscape:deskcolor="#d1d1d1"
     showgrid="false"
     inkscape:zoom="41.75"
     inkscape:cx="11.125749"
     inkscape:cy="12"
     inkscape:window-width="2560"
     inkscape:window-height="1369"
     inkscape:window-x="1912"
     inkscape:window-y="-7"
     inkscape:window-maximized="1"
     inkscape:current-layer="svg8830" />
  <path
     d="m 366.58683,-207.80838 q -37.42635,0 -64.07845,-26.6521 -26.65209,-26.65209 -26.65209,-64.07844 v -544.38324 q 0,-37.42634 26.65209,-64.07844 26.6521,-26.65209 64.07845,-26.65209 h 408.28742 q 37.42635,0 64.07844,26.65209 26.6521,26.6521 26.6521,64.07844 v 544.38324 q 0,37.42635 -26.6521,64.07844 -26.65209,26.6521 -64.07844,26.6521 z m 0,-90.73054 H 774.87425 V -842.92216 H 366.58683 Z M 185.12575,-26.347307 q -37.42635,0 -64.07844,-26.652096 -26.6521,-26.652096 -26.6521,-64.078437 v -589.74851 q 0,-19.28024 13.04252,-32.32275 13.04251,-13.04252 32.32275,-13.04252 19.28024,0 32.32275,13.04252 13.04252,13.04251 13.04252,32.32275 v 589.74851 h 453.65269 q 19.28024,0 32.32276,13.04251 13.04251,13.042514 13.04251,32.322753 0,19.28024 -13.04251,32.322755 -13.04252,13.042515 -32.32276,13.042515 z M 366.58683,-298.53892 v -544.38324 z"
     id="path8828"
     style="fill:#eeeeee;fill-opacity:1;stroke-width:1.13413" />
</svg>
