<?xml version="1.0" encoding="UTF-8" standalone="no"?>
<svg
   height="20px"
   viewBox="0 -960 960 960"
   width="20px"
   fill="#000000"
   version="1.1"
   id="svg4"
   sodipodi:docname="backspace_16dp_000000_FILL0_wght400_GRAD0_opsz20.svg"
   inkscape:export-filename="delete_light.png"
   inkscape:export-xdpi="76.800003"
   inkscape:export-ydpi="76.800003"
   inkscape:version="1.2.2 (b0a8486541, 2022-12-01)"
   xmlns:inkscape="http://www.inkscape.org/namespaces/inkscape"
   xmlns:sodipodi="http://sodipodi.sourceforge.net/DTD/sodipodi-0.dtd"
   xmlns="http://www.w3.org/2000/svg"
   xmlns:svg="http://www.w3.org/2000/svg">
  <defs
     id="defs8" />
  <sodipodi:namedview
     id="namedview6"
     pagecolor="#ffffff"
     bordercolor="#000000"
     borderopacity="0.25"
     inkscape:showpageshadow="2"
     inkscape:pageopacity="0.0"
     inkscape:pagecheckerboard="0"
     inkscape:deskcolor="#d1d1d1"
     showgrid="false"
     inkscape:zoom="36.95"
     inkscape:cx="3.1258457"
     inkscape:cy="10"
     inkscape:window-width="2560"
     inkscape:window-height="1360"
     inkscape:window-x="0"
     inkscape:window-y="0"
     inkscape:window-maximized="1"
     inkscape:current-layer="svg4" />
  <path
     d="m480-336 96-96 96 96 48-48-96-96 96-96-48-48-96 96-96-96-48 48 96 96-96 96 48 48ZM372-192q-16.85 0-31.92-7.5Q325-207 314-221L120-480l194-259q11-14 26.08-21.5Q355.15-768 372-768h420q29.7 0 50.85 21.16Q864-725.68 864-695.96v432.24Q864-234 842.85-213T792-192H372ZM210-480l162 216h420v-432H372L210-480Zm372 0Z"
     id="path2" />
</svg>
