<?xml version="1.0" encoding="UTF-8" standalone="no"?>
<!-- Created with Inkscape (http://www.inkscape.org/) -->

<svg
   width="20"
   height="20"
   viewBox="0 0 5.2916665 5.2916666"
   version="1.1"
   id="svg7076"
   xml:space="preserve"
   inkscape:version="1.2.2 (732a01da63, 2022-12-09)"
   sodipodi:docname="scroll_light.svg"
   inkscape:export-filename="scroll_light.png"
   inkscape:export-xdpi="124.8"
   inkscape:export-ydpi="124.8"
   xmlns:inkscape="http://www.inkscape.org/namespaces/inkscape"
   xmlns:sodipodi="http://sodipodi.sourceforge.net/DTD/sodipodi-0.dtd"
   xmlns="http://www.w3.org/2000/svg"
   xmlns:svg="http://www.w3.org/2000/svg"><sodipodi:namedview
     id="namedview7078"
     pagecolor="#ffffff"
     bordercolor="#000000"
     borderopacity="0.25"
     inkscape:showpageshadow="2"
     inkscape:pageopacity="0.0"
     inkscape:pagecheckerboard="0"
     inkscape:deskcolor="#d1d1d1"
     inkscape:document-units="mm"
     showgrid="false"
     inkscape:zoom="40.396034"
     inkscape:cx="8.3547805"
     inkscape:cy="9.3573542"
     inkscape:window-width="2560"
     inkscape:window-height="1369"
     inkscape:window-x="1912"
     inkscape:window-y="-7"
     inkscape:window-maximized="1"
     inkscape:current-layer="layer1" /><defs
     id="defs7073" /><g
     inkscape:label="Ebene 1"
     inkscape:groupmode="layer"
     id="layer1"><path
       style="fill:#000000;stroke-width:0.0074115"
       d="M 1.6420567,5.0856066 C 1.5775765,5.0773416 1.4802702,5.0441503 1.424926,5.0115507 1.3678711,4.9779461 1.277348,4.8861925 1.2430475,4.8272078 1.2276588,4.8007399 1.2059795,4.7524047 1.1948742,4.7197939 L 1.1746774,4.6605021 1.1727095,2.7946525 1.1707416,0.92880298 H 0.80730874 c -0.38819454,0 -0.39507026,-6.205e-4 -0.41435795,-0.036648 -0.004395,-0.00826 -0.007629,-0.070122 -0.007629,-0.146968 0,-0.2105063 0.0272483,-0.2885701 0.14052907,-0.4026071 0.0486128,-0.048941 0.0761754,-0.069971 0.11887405,-0.090715 0.11901839,-0.0578225 -0.0320303,-0.053093 1.69723789,-0.053093 1.4454587,0 1.5482219,8.5275e-4 1.590504,0.012883 0.203935,0.0581242 0.3516403,0.2079834 0.4030237,0.4089056 0.014851,0.058058 0.014989,0.076084 0.014989,1.86214412 v 1.8035189 h 0.2479371 c 0.1764419,0 0.2535415,0.00256 0.2673703,0.00886 0.035638,0.016242 0.040558,0.037947 0.040558,0.1791195 0,0.1898261 -0.019173,0.2717247 -0.088208,0.3768374 -0.08153,0.1241322 -0.2058267,0.2051865 -0.3564819,0.2324631 -0.045595,0.00826 -0.2993356,0.00994 -1.4118942,0.00939 -0.7459692,-3.561e-4 -1.3794507,-0.00368 -1.4077375,-0.00728 z M 4.4689402,4.941721 C 4.6025227,4.910235 4.7190326,4.7952569 4.7542121,4.6601938 c 0.00733,-0.028134 0.011346,-0.077154 0.011346,-0.1383617 V 4.4270394 H 3.4685452 2.1715289 v 0.092957 c 0,0.1080184 -0.013677,0.184953 -0.045255,0.2546042 -0.024178,0.053322 -0.069849,0.1177684 -0.1095388,0.1545698 l -0.025976,0.024087 1.2150844,-1.214e-4 c 1.0634243,-6.03e-5 1.2210777,-0.00151 1.2630994,-0.01143 z M 1.752471,4.9270867 c 0.1268564,-0.033041 0.2342296,-0.1397879 0.2681502,-0.2665832 0.00659,-0.024644 0.00994,-0.083731 0.01,-0.176392 8.46e-5,-0.1460595 0.00518,-0.1731656 0.035014,-0.1877278 0.00728,-0.00355 0.4935108,-0.00813 1.0805034,-0.010156 l 1.067262,-0.00374 V 2.4851916 0.68789848 l -0.016438,-0.05188 C 4.1518786,0.49372868 4.0380678,0.38269128 3.9006113,0.34688868 3.8638384,0.33731168 3.6806369,0.33584898 2.5143996,0.33584898 h -1.343839 l 0.038446,0.050029 c 0.042119,0.054811 0.065379,0.1005423 0.085749,0.1686118 0.012621,0.042178 0.0135,0.1488506 0.017022,2.06781342 0.00348,1.895889 0.00453,2.0257136 0.016589,2.0609508 0.027078,0.079122 0.1014821,0.1688624 0.1764118,0.2127746 0.068972,0.04042 0.1652979,0.052489 0.2476898,0.031027 z M 1.6855477,3.6167761 c -0.0021,-0.00538 -0.00282,-0.041252 -0.00163,-0.079673 l 0.00216,-0.069854 0.6318324,-0.0019 0.6318318,-0.0019 v 0.081568 0.081569 H 2.3195135 c -0.5163608,0 -0.6308918,-0.00177 -0.6339801,-0.00982 z m 2.18e-5,-0.5261647 c -0.0021,-0.00538 -0.00282,-0.042933 -0.00163,-0.083404 l 0.00216,-0.073587 1.0952946,-0.00184 1.0952945,-0.0019 -0.0021,0.083404 -0.0021,0.083404 -1.0915693,0.00184 c -0.9004714,0.00157 -1.092228,1.817e-4 -1.0953358,-0.00793 z m 0.047321,-0.5222776 -0.042125,-0.0023 -0.00427,-0.038557 c -0.0023,-0.021207 -0.00334,-0.056897 -0.00216,-0.079319 l 0.00203,-0.040761 1.0949015,-0.0019 1.0949023,-0.0019 v 0.081552 0.081551 L 3.637148,2.5666854 c -0.1314618,-6.6e-6 -0.604224,8.528e-4 -1.0505827,0.00197 -0.4463587,0.00105 -0.8305185,9.183e-4 -0.8536888,-3.509e-4 z M 1.685563,2.0455624 c -0.0021,-0.00538 -0.00282,-0.042906 -0.00163,-0.08338 l 0.00216,-0.073588 1.0950518,-0.0019 1.0950518,-0.0019 v 0.085257 0.085257 H 2.7827453 c -0.8993268,0 -1.0940986,-0.00171 -1.0971895,-0.0098 z m -7.2e-6,-0.5336578 c -0.0021,-0.00538 -0.00282,-0.041252 -0.00163,-0.079673 l 0.00216,-0.069854 1.0950518,-0.0019 1.0950518,-0.0019 v 0.081551 0.081552 H 2.7827533 c -0.9009248,0 -1.0940956,-0.00171 -1.0972008,-0.00982 z M 1.1708892,0.71201658 c -1.39e-4,-0.1143559 -0.025097,-0.187277 -0.08888,-0.2595992 -0.15609944,-0.1770008 -0.42109327,-0.1371143 -0.52609453,0.0791881 -0.0120564,0.024834 -0.0253199,0.06683 -0.0294786,0.093326 -0.008541,0.054444 -0.0102068,0.1506379 -0.002755,0.1581125 0.00269,0.00269 0.1494658,0.00492 0.32610714,0.00492 H 1.1709535 Z"
       id="path7572" /></g></svg>
